<?xml version="1.0" standalone="no"?>
<!DOCTYPE svg PUBLIC "-//W3C//DTD SVG 20010904//EN"
 "http://www.w3.org/TR/2001/REC-SVG-20010904/DTD/svg10.dtd">
<svg version="1.0" xmlns="http://www.w3.org/2000/svg"
 width="640.000000pt" height="640.000000pt" viewBox="0 0 640.000000 640.000000"
 preserveAspectRatio="xMidYMid meet">

<g transform="translate(0.000000,640.000000) scale(0.100000,-0.100000)"
fill="#000000" stroke="none">
<path d="M2 5163 c1 -1234 4 -1278 27 -468 11 372 14 439 31 925 5 146 12 346
15 445 3 99 8 215 11 258 l5 77 -45 0 -46 0 2 -1237z"/>
<path d="M146 6328 c-3 -40 -8 -140 -11 -223 -2 -82 -9 -267 -15 -410 -11
-286 -25 -675 -40 -1120 -6 -159 -12 -339 -15 -400 -3 -60 -10 -229 -15 -374
-6 -145 -18 -431 -26 -635 -14 -319 -29 -1426 -18 -1341 2 17 10 210 19 430 9
220 18 441 20 490 3 50 7 162 10 250 3 88 7 207 10 265 2 58 7 191 10 295 3
105 8 237 10 295 11 236 25 618 30 815 3 116 8 230 10 255 5 46 20 441 30 775
5 190 9 294 21 563 5 123 4 142 -9 142 -12 0 -17 -17 -21 -72z"/>
<path d="M6154 6118 c0 -156 -1 -1205 -2 -2331 -3 -1997 -2 -2048 16 -2072
l19 -24 1 30 c0 18 -3 27 -10 23 -7 -5 -8 8 -2 42 4 27 9 148 10 269 9 1373
15 2283 19 3223 l5 1122 -28 0 -27 0 -1 -282z"/>
<path d="M6387 6338 c-9 -95 -7 -3991 2 -4083 4 -44 9 871 9 2033 1 1161 0
2112 -2 2112 -2 0 -6 -28 -9 -62z"/>
<path d="M3345 6350 c-12 -4 -54 -13 -95 -19 -41 -7 -113 -26 -160 -43 -47
-17 -107 -38 -135 -48 -30 -10 -97 -19 -167 -23 -95 -5 -126 -11 -165 -30 -26
-13 -75 -31 -108 -41 -33 -10 -101 -38 -152 -63 -51 -24 -117 -52 -148 -63
-30 -10 -65 -26 -77 -34 -12 -9 -35 -16 -49 -16 -15 0 -48 -9 -74 -20 -26 -11
-56 -20 -67 -20 -12 0 -38 -18 -60 -40 -33 -36 -38 -47 -38 -89 0 -32 -5 -53
-16 -61 -22 -19 -44 -78 -49 -130 -2 -25 -4 -47 -5 -50 0 -3 -34 -6 -76 -7
-78 -2 -132 -22 -142 -53 -5 -13 -3 -13 11 -1 20 16 67 7 67 -13 0 -19 -34
-46 -58 -46 -15 0 -22 6 -22 20 0 11 -4 20 -8 20 -10 0 -48 -40 -44 -46 12
-15 30 -59 27 -65 -3 -4 4 -9 15 -12 13 -3 20 -14 20 -29 0 -15 8 -27 22 -33
28 -12 34 -40 17 -71 -7 -13 -12 -48 -11 -77 0 -28 3 -164 5 -302 4 -213 8
-262 26 -329 11 -44 28 -87 36 -96 8 -9 15 -32 15 -51 0 -41 18 -101 45 -149
26 -47 44 -136 38 -185 -4 -38 -3 -41 41 -70 l45 -30 -3 -61 c-2 -34 -7 -67
-11 -74 -12 -19 -17 -318 -6 -339 8 -14 6 -23 -9 -36 -21 -19 -28 -65 -10 -65
6 0 10 -20 10 -44 0 -24 7 -63 15 -86 8 -23 15 -57 15 -74 0 -17 9 -49 21 -70
11 -21 24 -70 29 -110 16 -128 37 -221 59 -264 11 -23 21 -46 21 -52 0 -14 50
-120 66 -140 16 -21 33 -108 41 -209 5 -76 3 -93 -17 -139 -20 -47 -22 -62
-16 -135 4 -45 11 -86 16 -91 6 -6 10 -18 10 -28 0 -27 141 -414 183 -503 13
-27 28 -61 35 -75 29 -61 -5 94 -41 188 -11 29 -28 87 -37 127 -16 67 -16 75
-1 89 10 11 11 16 3 16 -22 0 -12 20 16 31 19 8 32 7 45 -1 11 -7 35 -8 61 -5
37 6 44 4 48 -12 3 -11 22 -24 48 -33 30 -10 49 -24 63 -47 10 -18 25 -33 33
-33 8 0 17 -7 20 -15 3 -8 21 -19 39 -25 31 -10 81 -56 102 -95 5 -9 49 -30
96 -46 66 -22 97 -27 131 -23 24 4 51 2 61 -3 11 -6 30 -7 49 -2 17 5 78 20
136 34 57 14 107 29 110 33 3 4 17 13 33 19 15 7 27 19 27 26 0 8 20 24 44 37
36 18 56 22 101 18 41 -3 58 -1 68 10 6 8 11 18 9 21 -1 3 6 7 18 9 11 2 20 8
20 13 0 5 5 9 10 9 6 0 24 16 41 35 17 19 39 35 49 35 20 0 54 28 63 53 4 11
17 17 36 17 23 0 36 9 64 49 22 30 45 51 59 53 12 2 25 12 28 24 3 11 22 36
43 54 21 18 45 46 53 62 13 25 20 29 42 23 15 -4 30 -11 33 -17 11 -17 16 4
24 92 8 93 28 147 100 270 46 80 82 167 110 265 10 33 28 96 41 139 13 44 24
85 24 92 0 7 6 33 14 56 13 43 20 75 52 238 9 47 23 117 30 155 11 50 13 109
10 208 -4 92 -2 146 6 163 9 18 9 27 0 36 -19 19 -14 45 10 62 l22 15 -23 20
c-28 24 -23 33 33 61 45 21 86 74 86 109 0 17 12 51 45 126 7 17 26 68 41 115
15 47 38 101 50 120 13 19 26 49 30 65 4 17 13 39 20 50 6 11 17 75 23 142 5
67 15 132 21 144 7 12 10 38 7 58 -13 86 -29 158 -42 183 -8 17 -10 30 -4 34
14 8 1 24 -15 18 -25 -9 -28 15 -7 54 11 20 22 57 26 82 4 25 9 60 12 79 5 28
1 37 -23 56 l-29 23 28 30 c25 26 28 38 31 103 4 92 -4 100 -90 92 -58 -5 -62
-4 -83 23 -12 16 -30 29 -39 29 -13 0 -17 9 -17 40 l0 40 -47 3 c-48 3 -57 13
-39 41 12 19 -15 61 -40 61 -10 0 -21 5 -24 10 -3 6 -17 10 -31 10 -14 0 -35
7 -47 15 -17 11 -32 12 -62 5 -53 -12 -78 -5 -70 22 4 11 1 27 -7 36 -16 19
-68 134 -68 150 0 6 -10 19 -22 29 -13 10 -25 27 -26 38 -6 35 -22 46 -57 39
-21 -4 -44 0 -65 11 -17 9 -34 14 -37 11 -3 -3 -18 1 -34 9 -36 19 -63 19 -79
0 -18 -21 -103 -19 -148 4 -20 10 -64 32 -97 49 -110 55 -238 78 -300 52z
m601 -180 c39 0 58 -24 56 -70 -3 -39 -1 -42 13 -30 11 9 19 10 27 2 16 -16
-22 -76 -51 -80 -26 -4 -70 40 -71 69 0 9 -11 37 -24 62 -26 48 -24 61 9 53
11 -3 29 -6 41 -6z m-421 -911 c12 -11 52 -12 59 -1 10 16 130 -14 198 -49 10
-5 26 -9 36 -9 10 0 27 -7 38 -15 10 -8 30 -15 45 -15 14 0 30 -5 37 -12 6 -6
24 -11 41 -10 21 0 34 -6 46 -24 8 -13 23 -24 31 -24 27 0 73 -39 91 -78 9
-20 21 -40 25 -43 5 -3 11 -23 14 -45 6 -43 31 -111 50 -134 12 -15 19 -63 28
-183 2 -40 11 -69 30 -97 14 -22 26 -43 26 -48 0 -5 15 -29 33 -53 51 -67 67
-121 67 -226 0 -50 -5 -114 -12 -142 -11 -48 -10 -53 10 -72 33 -30 26 -51
-19 -62 -25 -6 -27 -4 -33 37 -4 26 -16 52 -31 66 -25 23 -23 23 -405 50 -138
9 -216 20 -259 36 -27 9 24 33 85 40 33 3 73 10 89 14 17 5 47 11 69 15 21 3
43 8 49 12 23 14 161 2 190 -16 35 -22 77 -9 77 25 0 57 -75 100 -157 89 -27
-3 -82 -8 -123 -10 -177 -9 -318 -37 -422 -84 -51 -23 -59 -35 -47 -68 10 -26
12 -24 -82 -60 -66 -25 -86 -27 -183 -26 -73 1 -119 6 -140 16 -17 8 -44 21
-61 28 -16 8 -51 35 -77 61 -48 48 -111 85 -183 108 -22 7 -45 16 -50 21 -6 4
-53 15 -104 24 -52 9 -102 20 -110 24 -9 5 -52 11 -95 15 -66 5 -88 3 -137
-15 -56 -21 -81 -40 -134 -106 -17 -21 -31 -30 -44 -26 -15 4 -20 -1 -23 -23
-2 -21 -12 -31 -36 -41 -19 -8 -32 -10 -29 -6 3 4 2 29 -3 56 -4 26 -3 47 2
47 4 0 8 30 8 66 0 62 1 65 23 62 32 -4 37 39 5 51 -23 8 -23 8 -1 15 14 5 26
23 38 59 9 29 20 54 24 57 18 14 31 55 31 99 0 28 7 63 18 81 16 30 16 32 -2
46 -18 12 -19 18 -8 47 7 19 12 41 12 51 0 9 9 26 20 38 11 12 20 30 20 40 0
10 9 23 20 30 11 7 20 20 20 28 1 23 45 68 74 76 14 3 26 10 26 14 0 5 17 14
38 21 20 6 44 19 54 29 9 9 34 20 55 23 22 4 60 16 85 27 60 26 256 38 522 31
38 -1 65 4 75 13 9 8 34 16 56 19 22 2 90 10 150 17 61 6 112 14 114 16 6 6
44 -6 56 -17z m-1001 -1073 l39 -13 -99 -8 c-54 -4 -124 -15 -154 -25 -87 -29
-155 -30 -105 -2 30 16 36 18 55 21 6 0 10 7 10 14 0 10 18 14 62 15 33 1 63
4 66 7 10 10 88 4 126 -9z m-44 -90 c0 -10 -25 -20 -77 -31 -43 -9 -86 -21
-96 -26 -10 -5 -22 -7 -27 -4 -6 4 -10 1 -10 -4 0 -6 -7 -11 -15 -11 -8 0 -15
5 -15 10 0 6 -7 10 -15 10 -18 0 -20 16 -2 27 54 35 257 58 257 29z m-490 -23
c0 -33 -12 -63 -25 -63 -12 0 -51 38 -44 43 19 16 55 37 61 37 5 0 8 -8 8 -17z
m1939 -34 c38 -12 107 -42 81 -36 -8 3 -22 1 -30 -4 -9 -4 -36 -4 -60 1 -25 5
-85 14 -135 21 -67 9 -84 14 -65 20 40 11 170 10 209 -2z m-1014 -9 c7 -12 -2
-12 -30 0 -19 8 -19 9 2 9 12 1 25 -3 28 -9z m-432 -53 c8 -13 17 -34 19 -47
2 -20 11 -26 47 -33 53 -10 87 5 136 59 l30 34 34 -17 c19 -10 37 -28 43 -45
12 -33 53 -39 73 -11 7 10 19 14 29 10 15 -6 16 -16 10 -76 l-6 -69 29 -6 c26
-6 29 -10 25 -36 -2 -16 -10 -35 -18 -41 -8 -6 -14 -20 -14 -30 0 -29 -69 -68
-141 -80 -87 -15 -271 -15 -344 0 -78 16 -175 48 -198 65 -20 15 -43 102 -49
181 -3 45 -1 50 19 53 25 4 94 -29 123 -58 28 -28 37 -25 51 18 6 20 17 43 23
51 6 8 10 23 8 33 -4 24 23 68 42 68 8 0 21 -10 29 -23z m947 -22 c82 -15 102
-29 94 -61 -9 -36 28 -32 43 4 8 17 27 33 50 42 21 8 41 16 46 18 4 2 16 -16
27 -41 11 -25 26 -47 33 -50 22 -8 121 4 136 16 8 7 20 27 28 45 21 51 48 42
88 -28 34 -62 43 -81 49 -112 5 -23 12 -28 35 -28 16 0 42 7 57 15 52 27 58
22 51 -45 -8 -70 -40 -145 -73 -166 -97 -64 -492 -54 -621 15 -51 27 -134 268
-118 343 11 49 23 60 49 46 11 -7 23 -13 26 -13z m-1390 -18 c21 1 60 -37 60
-57 0 -9 4 -20 9 -25 4 -6 16 -41 25 -78 29 -118 74 -168 176 -196 25 -7 68
-19 95 -28 43 -14 211 -23 419 -23 15 0 26 -7 29 -20 3 -13 11 -18 20 -14 18
7 111 138 148 209 66 128 102 191 113 197 23 16 73 8 94 -15 12 -12 47 -78 78
-147 55 -120 65 -140 108 -207 l21 -33 95 0 c52 0 151 -5 220 -11 104 -9 140
-9 212 4 159 28 212 72 259 216 12 36 27 76 35 88 15 24 115 73 149 73 50 0
74 -136 62 -355 -5 -84 -12 -110 -43 -151 -13 -19 -21 -39 -18 -51 3 -11 -2
-37 -10 -58 -9 -20 -16 -46 -16 -57 0 -10 -12 -42 -26 -70 -14 -28 -30 -80
-35 -116 -10 -71 -36 -117 -73 -126 -13 -3 -26 -15 -29 -26 -3 -11 -11 -18
-19 -15 -21 7 -52 -44 -52 -89 -1 -34 -4 -40 -19 -38 -10 2 -34 -8 -52 -22
-19 -15 -36 -22 -39 -17 -3 5 -17 9 -30 9 -21 0 -28 -10 -47 -60 -12 -32 -18
-62 -15 -66 11 -10 36 28 36 55 0 32 16 29 28 -6 8 -23 7 -31 -4 -35 -8 -3
-14 -17 -14 -31 0 -18 -8 -28 -27 -36 -16 -6 -37 -16 -47 -21 -21 -11 -42 8
-52 47 -7 29 -96 28 -145 -2 -21 -14 -43 -20 -57 -17 -17 5 -22 1 -27 -22 -9
-44 -20 -59 -44 -62 -17 -3 -19 -7 -11 -23 15 -28 3 -41 -31 -34 -24 6 -31 3
-41 -20 -6 -15 -17 -24 -25 -21 -7 3 -20 -5 -29 -19 -16 -24 -67 -48 -79 -37
-4 4 -12 0 -18 -8 -19 -24 -68 -43 -81 -30 -12 12 -119 14 -112 1 7 -11 -22
-23 -35 -15 -5 3 -9 -2 -9 -11 0 -13 -7 -15 -37 -9 -21 4 -40 10 -43 14 -9 12
-72 40 -90 40 -10 0 -21 7 -24 16 -4 10 -14 14 -25 11 -24 -6 -33 1 -48 36 -7
15 -19 27 -26 27 -18 0 -92 69 -107 100 -7 14 -30 40 -51 58 -22 19 -39 42
-39 53 0 11 -8 22 -17 25 -10 3 -29 11 -43 18 -14 7 -45 14 -69 15 -24 0 -50
6 -57 12 -11 9 -14 6 -14 -16 0 -25 -2 -26 -32 -20 -18 4 -37 10 -41 14 -11
11 3 41 20 41 8 0 11 -4 8 -10 -3 -5 -1 -10 4 -10 6 0 11 15 11 34 0 27 -7 39
-35 60 -23 18 -36 38 -41 61 -4 26 -13 37 -30 41 -12 3 -28 3 -33 -1 -6 -3
-25 4 -43 17 -47 33 -55 41 -63 67 -4 12 -20 27 -36 33 -15 5 -28 13 -27 16 1
4 -6 24 -15 46 -9 21 -17 49 -17 61 0 12 -7 28 -15 35 -8 7 -12 17 -9 22 3 5
-3 12 -15 15 -14 3 -21 13 -21 29 0 13 -4 32 -9 42 -6 9 -13 38 -16 64 -3 26
-13 54 -21 62 -10 11 -14 35 -12 85 1 54 -2 75 -15 89 -9 10 -17 23 -17 28 0
5 5 2 10 -6 7 -11 10 -4 10 28 0 23 -5 42 -11 42 -17 0 -8 224 11 263 32 66
51 88 74 81 11 -4 28 -7 36 -7z"/>
<path d="M2065 4400 c-3 -5 -1 -10 4 -10 6 0 11 5 11 10 0 6 -2 10 -4 10 -3 0
-8 -4 -11 -10z"/>
<path d="M2023 4253 c16 -16 18 -16 34 0 16 16 15 17 -17 17 -32 0 -33 -1 -17
-17z"/>
<path d="M3661 3786 c12 -10 59 -15 59 -6 0 5 -14 10 -32 10 -17 0 -29 -2 -27
-4z"/>
<path d="M2937 3339 c-15 -12 -35 -35 -44 -53 -9 -17 -20 -33 -24 -36 -5 -3
14 -20 41 -38 28 -18 50 -36 50 -40 0 -4 -12 -15 -28 -24 -15 -9 -49 -35 -75
-59 -32 -28 -59 -43 -80 -44 -50 -4 -90 -15 -108 -31 -8 -8 -28 -14 -43 -14
-37 0 -66 -17 -66 -39 0 -10 -17 -27 -40 -40 -50 -28 -52 -32 -34 -66 9 -18
11 -32 5 -38 -7 -7 2 -25 26 -53 35 -43 35 -43 65 -28 17 9 50 16 74 16 39 1
43 4 46 27 3 23 7 26 44 26 23 0 50 7 60 16 41 34 78 41 197 40 98 -1 117 1
117 13 0 18 -63 37 -139 43 -30 2 -60 8 -67 14 -9 7 -25 7 -54 -1 -51 -14 -78
-7 -60 15 7 8 21 15 31 15 10 0 24 8 31 19 7 10 29 22 48 26 19 4 43 15 53 24
10 9 37 21 60 26 49 13 56 31 32 81 -24 51 -15 64 45 64 56 0 72 23 22 33 -19
4 -35 18 -51 47 -45 81 -82 97 -134 59z"/>
<path d="M3270 3310 c-24 -20 -25 -21 -6 -35 11 -8 37 -15 58 -15 31 0 40 -4
48 -24 7 -18 14 -22 34 -19 30 6 30 8 15 52 -20 57 -101 79 -149 41z"/>
<path d="M3283 3147 c-9 -15 -86 -37 -131 -37 -29 0 -62 -26 -62 -50 0 -35 97
-55 132 -27 24 19 58 74 51 81 -4 4 3 9 15 13 23 6 29 18 13 28 -6 3 -13 -1
-18 -8z"/>
<path d="M3347 3123 c-12 -11 -8 -58 7 -78 8 -12 20 -16 35 -12 14 3 24 -1 31
-12 6 -13 18 -16 38 -13 24 3 34 -2 56 -30 26 -35 39 -84 21 -81 -94 14 -105
15 -105 2 1 -20 108 -99 134 -99 11 0 43 -11 70 -25 27 -14 55 -25 62 -25 6 0
14 -7 18 -15 8 -21 26 -19 26 4 0 21 19 31 57 31 25 0 25 1 18 58 -8 68 -44
110 -102 119 -20 4 -55 17 -77 29 -23 13 -50 24 -61 24 -31 0 -136 68 -168
107 -18 22 -47 30 -60 16z"/>
<path d="M3258 2883 c7 -3 16 -2 19 1 4 3 -2 6 -13 5 -11 0 -14 -3 -6 -6z"/>
<path d="M3940 2698 l0 -33 20 25 c25 32 25 40 0 40 -16 0 -20 -7 -20 -32z"/>
<path d="M2974 2683 c-156 -4 -184 -11 -171 -47 11 -28 97 -36 347 -33 239 4
290 10 290 38 0 35 -144 48 -466 42z"/>
<path d="M1720 3955 c-14 -17 -13 -157 3 -233 6 -32 17 -57 28 -62 20 -11 24
0 35 97 3 35 13 68 20 74 19 16 18 69 -1 69 -9 0 -20 11 -25 24 -12 34 -44 50
-60 31z"/>
<path d="M6392 2130 c0 -14 2 -19 5 -12 2 6 2 18 0 25 -3 6 -5 1 -5 -13z"/>
<path d="M4117 1902 c-9 -15 -31 -88 -33 -107 -5 -38 -63 -261 -100 -375 -20
-63 -43 -140 -51 -170 -8 -30 -20 -64 -28 -75 -19 -31 -57 -164 -60 -212 -1
-23 -6 -58 -9 -78 -4 -19 -3 -35 2 -35 14 0 33 26 25 33 -3 4 -2 7 4 7 22 0
52 39 77 100 23 55 24 65 11 73 -24 13 -18 33 19 60 18 14 38 38 44 54 6 15
25 127 42 248 16 121 44 267 60 325 16 58 30 115 30 126 0 21 -25 41 -33 26z"/>
<path d="M6393 1835 c0 -22 2 -30 4 -17 2 12 2 30 0 40 -3 9 -5 -1 -4 -23z"/>
<path d="M6145 1656 c-4 -30 -5 -275 -1 -543 3 -268 5 -629 6 -800 l0 -313 25
0 26 0 -4 793 c-2 548 -7 804 -15 832 -6 22 -7 42 -3 45 4 3 0 13 -10 23 -17
18 -18 17 -24 -37z"/>
<path d="M6385 1683 c-4 -10 -9 -393 -11 -851 -3 -729 -2 -832 11 -832 13 0
15 107 15 850 0 468 -2 850 -4 850 -2 0 -7 -8 -11 -17z"/>
<path d="M2320 1259 c1 -8 7 -25 15 -39 l14 -25 1 26 c0 15 -7 32 -15 39 -12
10 -15 10 -15 -1z"/>
<path d="M4212 1243 c-5 -10 -20 -52 -32 -93 -12 -41 -24 -78 -27 -82 -7 -12
38 -30 61 -24 24 6 86 93 86 120 0 9 6 19 14 22 24 9 26 31 5 53 -26 27 -94
29 -107 4z"/>
<path d="M4359 1218 c-5 -23 -8 -142 -3 -171 7 -46 31 -58 86 -44 36 9 38 11
23 27 -15 17 -15 19 2 22 19 4 63 -37 63 -59 0 -7 7 -13 15 -13 8 0 15 4 15 9
0 5 10 7 21 4 19 -5 20 -4 10 15 -6 11 -20 24 -31 27 -11 3 -20 14 -20 23 0
22 -104 124 -147 146 -18 9 -33 15 -34 14z"/>
<path d="M2370 1135 c0 -14 4 -25 9 -25 4 0 6 11 3 25 -2 14 -6 25 -8 25 -2 0
-4 -11 -4 -25z"/>
<path d="M2040 1029 l-34 -21 27 -20 c15 -11 27 -24 27 -30 0 -18 74 -78 96
-78 13 0 24 -8 27 -20 3 -11 10 -20 16 -20 22 0 10 57 -23 109 -19 29 -37 63
-40 77 -8 31 -47 32 -96 3z"/>
<path d="M1900 934 c-33 -31 -60 -63 -60 -70 0 -23 39 -16 68 14 30 30 75 112
62 112 -5 0 -36 -25 -70 -56z"/>
<path d="M3305 180 c-10 -11 -26 -20 -36 -20 -19 0 -54 -39 -64 -71 -4 -11 -1
-35 5 -54 11 -33 14 -35 54 -35 42 0 44 2 59 43 20 54 37 117 37 140 0 23 -32
22 -55 -3z"/>
</g>
</svg>
